<?xml version="1.0" encoding="utf-8"?>
<!-- Generator: Adobe Illustrator 22.0.1, SVG Export Plug-In . SVG Version: 6.00 Build 0)  -->
<svg version="1.1" id="Layer_1" xmlns="http://www.w3.org/2000/svg" xmlns:xlink="http://www.w3.org/1999/xlink" x="0px" y="0px"
	 viewBox="0 0 448 512" style="enable-background:new 0 0 448 512;" xml:space="preserve">
<style type="text/css">
	.st0{fill:#333333;}
</style>
<path class="st0" d="M16,112h416c8.8,0,16-7.2,16-16V76c0-8.8-7.2-16-16-16H16C7.2,60,0,67.2,0,76v20C0,104.8,7.2,112,16,112z
	 M16,272h416c8.8,0,16-7.2,16-16v-20c0-8.8-7.2-16-16-16H16c-8.8,0-16,7.2-16,16v20C0,264.8,7.2,272,16,272z M16,432h416
	c8.8,0,16-7.2,16-16v-20c0-8.8-7.2-16-16-16H16c-8.8,0-16,7.2-16,16v20C0,424.8,7.2,432,16,432z"/>
</svg>
